<?xml version="1.0" standalone="no"?><!DOCTYPE svg PUBLIC "-//W3C//DTD SVG 1.1//EN" "http://www.w3.org/Graphics/SVG/1.1/DTD/svg11.dtd"><svg t="1674042527055" class="icon" viewBox="0 0 1024 1024" version="1.1" xmlns="http://www.w3.org/2000/svg" p-id="18242" xmlns:xlink="http://www.w3.org/1999/xlink" width="1024" height="1024"><path d="M154.9 728.3m-40.9 0a40.9 40.9 0 1 0 81.8 0 40.9 40.9 0 1 0-81.8 0Z" fill="#242424" p-id="18243"></path><path d="M761.8 686.1c-11.3 19.6-36.4 26.3-55.9 15L464.1 561.5c-19.6-11.3-26.3-36.4-15-55.9 11.3-19.6 36.4-26.3 55.9-15l241.7 139.5c19.7 11.3 26.4 36.4 15.1 56z" fill="#242424" p-id="18244"></path><path d="M483.9 310.3c22.6 0 41 18.3 41 41v172.6c0 22.6-18.3 41-41 41-22.6 0-41-18.3-41-41V351.2c0.1-22.6 18.4-40.9 41-40.9zM270.2 803.8c16 16 16 41.9 0 57.9l-98.4 98.4c-16 16-41.9 16-57.9 0s-16-41.9 0-57.9l98.4-98.4c16-16 41.9-16 57.9 0zM725 802.8c-16 16-16 41.9 0 57.9l98.4 98.4c16 16 41.9 16 57.9 0s16-41.9 0-57.9l-98.4-98.4c-16-16-41.9-16-57.9 0zM229.4 79.4c16 16 16 41.9 0 57.9L114.6 252.1c-16 16-41.9 16-57.9 0s-16-41.9 0-57.9L171.5 79.4c16-16 41.9-16 57.9 0zM954.7 260.1c-16 16-41.9 16-57.9 0L782 145.4c-16-16-16-41.9 0-57.9s41.9-16 57.9 0l114.8 114.8c16 15.9 16 41.8 0 57.8z" fill="#242424" p-id="18245"></path><path d="M497.4 96.1c-240.5 0-435.5 195-435.5 435.5 0 79.3 21.2 153.7 58.3 217.8l72.1-37.3C161 659.2 143 597.5 143 531.6c0-195.7 158.6-354.3 354.3-354.3 195.7 0 354.3 158.6 354.3 354.3S693.1 885.9 497.4 885.9c-87.5 0-167.6-31.7-229.4-84.3l-28.9 27.9-40.8 18.6c78 73.7 183.2 118.9 299 118.9 240.5 0 435.5-195 435.5-435.5S737.9 96.1 497.4 96.1z" fill="#242424" p-id="18246"></path></svg>